<svg width="42" height="40" viewBox="0 0 42 40" fill="none" xmlns="http://www.w3.org/2000/svg">
<path fill-rule="evenodd" clip-rule="evenodd" d="M18.0327 30.9407C17.6638 30.9799 17.2892 31 16.9099 31C11.1109 31 6.40991 26.299 6.40991 20.5C6.40991 14.701 11.1109 10 16.9099 10C17.2892 10 17.6638 10.0201 18.0327 10.0593C14.6443 12.2953 12.4085 16.1366 12.4085 20.5C12.4085 24.8634 14.6443 28.7047 18.0327 30.9407ZM20.9092 30.2115C17.094 28.6386 14.4085 24.8829 14.4085 20.5C14.4085 16.1171 17.094 12.3614 20.9092 10.7885C24.7245 12.3614 27.4099 16.1171 27.4099 20.5C27.4099 24.8829 24.7245 28.6386 20.9092 30.2115ZM20.9092 32.3465C19.6536 32.7703 18.3086 33 16.9099 33C10.0064 33 4.40991 27.4036 4.40991 20.5C4.40991 13.5964 10.0064 8 16.9099 8C18.3086 8 19.6536 8.22971 20.9092 8.65347C22.1649 8.22971 23.5099 8 24.9085 8C31.8121 8 37.4085 13.5964 37.4085 20.5C37.4085 27.4036 31.8121 33 24.9085 33C23.5099 33 22.1649 32.7703 20.9092 32.3465ZM23.7857 10.0593C24.1546 10.0201 24.5292 10 24.9085 10C30.7075 10 35.4085 14.701 35.4085 20.5C35.4085 26.299 30.7075 31 24.9085 31C24.5292 31 24.1546 30.9799 23.7857 30.9407C27.1742 28.7047 29.4099 24.8634 29.4099 20.5C29.4099 16.1366 27.1742 12.2953 23.7857 10.0593Z" fill="url(#paint0_linear_110_85)"/>
<defs>
<linearGradient id="paint0_linear_110_85" x1="4.40991" y1="8" x2="41.4884" y2="22.7302" gradientUnits="userSpaceOnUse">
<stop stop-color="#7E011A"/>
<stop offset="1" stop-color="#7E011A"/>
</linearGradient>
</defs>
</svg>
