<svg width="43" height="40" viewBox="0 0 43 40" fill="none" xmlns="http://www.w3.org/2000/svg">
<path fill-rule="evenodd" clip-rule="evenodd" d="M5.4639 32.1859H3.20557L4.2544 30.1859L15.3131 9.09834L16.4132 7.00049L17.5949 9.05352L19.5528 12.455L21.3131 9.09834L22.4132 7.00049L23.5949 9.05352L35.7583 30.1859L36.9095 32.1859H34.6018H30.9095H28.6018H11.4639H9.20557H5.4639ZM12.5127 30.1859H27.4507L19.6343 16.6059L12.5127 30.1859ZM18.4526 14.5529L10.2544 30.1859H6.51273L16.4948 11.1514L18.4526 14.5529ZM20.7345 14.5081L29.7583 30.1859H33.4507L22.4948 11.1514L20.7345 14.5081Z" fill="url(#paint0_linear_110_105)"/>
<defs>
<linearGradient id="paint0_linear_110_105" x1="3.20557" y1="7.00049" x2="40.9331" y2="22.1961" gradientUnits="userSpaceOnUse">
<stop stop-color="#7E011A"/>
<stop offset="1" stop-color="#7E011A"/>
</linearGradient>
</defs>
</svg>
